<svg xmlns="http://www.w3.org/2000/svg" xmlns:xlink="http://www.w3.org/1999/xlink" version="1.1" id="&#12524;&#12452;&#12516;&#12540;_1" x="0px" y="0px" viewBox="0 0 90 90" enable-background="new 0 0 90 90" xml:space="preserve" height="100px" width="100px">
<path d="M49,45c7.2-7.2,13.8-13.8,14-14c0.5-0.5,0.8-1.3,0.9-2c0.1-0.8-0.2-1.6-0.7-2.1s-1.3-0.8-2.1-0.7c-0.8,0-1.5,0.4-2,0.9  c-0.2,0.2-6.8,6.8-14,14c-7.2-7.2-13.8-13.8-14-14c-0.5-0.5-1.3-0.8-2-0.9c-0.8-0.1-1.6,0.2-2.1,0.7s-0.8,1.3-0.7,2.1  c0,0.8,0.4,1.5,0.9,2c0.2,0.2,6.8,6.8,14,14c-7.2,7.2-13.8,13.8-14,14c-0.5,0.5-0.8,1.3-0.9,2c-0.1,0.8,0.2,1.6,0.7,2.1  s1.3,0.8,2.1,0.7c0.8,0,1.5-0.4,2-0.9c0.2-0.2,6.8-6.8,14-14c7.2,7.2,13.8,13.8,14,14c0.5,0.5,1.3,0.8,2,0.9  c0.8,0.1,1.6-0.2,2.1-0.7s0.8-1.3,0.7-2.1c0-0.8-0.4-1.5-0.9-2C62.8,58.8,56.2,52.2,49,45z"/>
</svg>