<svg xmlns:dc="http://purl.org/dc/elements/1.1/" xmlns:cc="http://creativecommons.org/ns#" xmlns:rdf="http://www.w3.org/1999/02/22-rdf-syntax-ns#" xmlns:svg="http://www.w3.org/2000/svg" xmlns="http://www.w3.org/2000/svg" xmlns:sodipodi="http://sodipodi.sourceforge.net/DTD/sodipodi-0.dtd" xmlns:inkscape="http://www.inkscape.org/namespaces/inkscape" width="100" height="100" id="svg3051" version="1.1" inkscape:version="0.48.2 r9819" sodipodi:docname="tiling.svg">
  <defs id="defs3053"/>
  <sodipodi:namedview id="base" pagecolor="#ffffff" bordercolor="#666666" borderopacity="1.0" inkscape:pageopacity="0.0" inkscape:pageshadow="2" inkscape:zoom="5.36" inkscape:cx="39.677594" inkscape:cy="51.62768" inkscape:document-units="px" inkscape:current-layer="layer1" showgrid="false" inkscape:window-width="1362" inkscape:window-height="724" inkscape:window-x="4" inkscape:window-y="0" inkscape:window-maximized="1"/>
  <metadata id="metadata3056">
    <rdf:RDF>
      <cc:Work rdf:about="">
        <dc:format>image/svg+xml</dc:format>
        <dc:type rdf:resource="http://purl.org/dc/dcmitype/StillImage"/>
        <dc:title/>
      </cc:Work>
    </rdf:RDF>
  </metadata>
  <g inkscape:label="Ebene 1" inkscape:groupmode="layer" id="layer1" transform="translate(0,-952.36218)">
    <path style="font-size:medium;font-style:normal;font-variant:normal;font-weight:normal;font-stretch:normal;text-indent:0;text-align:start;text-decoration:none;line-height:normal;letter-spacing:normal;word-spacing:normal;text-transform:none;direction:ltr;block-progression:tb;writing-mode:lr-tb;text-anchor:start;baseline-shift:baseline;color:#000000;fill:#000000;fill-opacity:1;stroke:none;stroke-width:1.59266818;marker:none;visibility:visible;display:inline;overflow:visible;enable-background:accumulate;font-family:Sans;-inkscape-font-specification:Sans" d="M 7.375 5 C 6.0646162 5 5 6.06462 5 7.375 L 5 19.90625 C 5 21.21663 6.0646161 22.28125 7.375 22.28125 L 19.90625 22.28125 C 21.216634 22.28125 22.28125 21.21663 22.28125 19.90625 L 22.28125 7.375 C 22.28125 6.06462 21.216634 5 19.90625 5 L 7.375 5 z M 30.625 6.1875 C 29.314616 6.1875 28.25 7.25212 28.25 8.5625 L 28.25 18.75 C 28.25 20.06038 29.314616 21.125 30.625 21.125 L 40.8125 21.125 C 42.122884 21.125 43.1875 20.06038 43.1875 18.75 L 43.1875 8.5625 C 43.1875 7.25212 42.122884 6.1875 40.8125 6.1875 L 30.625 6.1875 z M 51.53125 7.1875 C 50.220866 7.1875 49.15625 8.25212 49.15625 9.5625 L 49.15625 17.75 C 49.15625 19.06038 50.220866 20.125 51.53125 20.125 L 59.6875 20.125 C 60.997884 20.125 62.0625 19.06038 62.0625 17.75 L 62.0625 9.5625 C 62.0625 8.25212 60.997884 7.1875 59.6875 7.1875 L 51.53125 7.1875 z M 70.40625 8.0625 C 69.114669 8.0625 68.03125 9.09587 68.03125 10.40625 L 68.03125 16.875 C 68.03125 18.18538 69.095866 19.25 70.40625 19.25 L 76.875 19.25 C 78.185384 19.25 79.25 18.18538 79.25 16.875 L 79.25 10.40625 C 79.25 9.09587 78.166581 8.0625 76.875 8.0625 L 70.40625 8.0625 z M 87.59375 8.78125 C 86.283366 8.78125 85.21875 9.84587 85.21875 11.15625 L 85.21875 16.15625 C 85.21875 17.46663 86.283366 18.53125 87.59375 18.53125 L 92.625 18.53125 C 93.935384 18.53125 95 17.46663 95 16.15625 L 95 11.15625 C 95 9.84587 93.935384 8.78125 92.625 8.78125 L 87.59375 8.78125 z M 8.5625 28.25 C 7.2521161 28.25 6.1875 29.31462 6.1875 30.625 L 6.1875 40.8125 C 6.1875 42.12288 7.2521161 43.1875 8.5625 43.1875 L 18.75 43.1875 C 20.060384 43.1875 21.125 42.12288 21.125 40.8125 L 21.125 30.625 C 21.125 29.31462 20.060384 28.25 18.75 28.25 L 8.5625 28.25 z M 31.1875 28.8125 C 29.877116 28.8125 28.8125 29.87712 28.8125 31.1875 L 28.8125 39.375 C 28.8125 40.68538 29.877116 41.75 31.1875 41.75 L 39.375 41.75 C 40.685384 41.75 41.75 40.68538 41.75 39.375 L 41.75 31.1875 C 41.75 29.87712 40.685384 28.8125 39.375 28.8125 L 31.1875 28.8125 z M 51.8125 29.28125 C 50.502116 29.28125 49.4375 30.34587 49.4375 31.65625 L 49.4375 38.125 C 49.4375 39.43538 50.502116 40.5 51.8125 40.5 L 58.28125 40.5 C 59.591634 40.5 60.65625 39.43538 60.65625 38.125 L 60.65625 31.65625 C 60.65625 30.34587 59.591634 29.28125 58.28125 29.28125 L 51.8125 29.28125 z M 70.75 29.6875 C 69.439616 29.6875 68.375 30.75212 68.375 32.0625 L 68.375 37.09375 C 68.375 38.40413 69.439616 39.46875 70.75 39.46875 L 75.75 39.46875 C 77.060384 39.46875 78.125 38.40413 78.125 37.09375 L 78.125 32.0625 C 78.125 30.75212 77.060384 29.6875 75.75 29.6875 L 70.75 29.6875 z M 88.21875 30.03125 C 86.908366 30.03125 85.84375 31.09587 85.84375 32.40625 L 85.84375 36.1875 C 85.84375 37.49788 86.908366 38.5625 88.21875 38.5625 L 92 38.5625 C 93.310384 38.5625 94.375 37.49788 94.375 36.1875 L 94.375 32.40625 C 94.375 31.09587 93.310384 30.03125 92 30.03125 L 88.21875 30.03125 z M 9.5625 49.15625 C 8.2521161 49.15625 7.1875 50.22085 7.1875 51.53125 L 7.1875 59.6875 C 7.1875 60.9979 8.2521161 62.0625 9.5625 62.0625 L 17.75 62.0625 C 19.060384 62.0625 20.125 60.9979 20.125 59.6875 L 20.125 51.53125 C 20.125 50.22085 19.060384 49.15625 17.75 49.15625 L 9.5625 49.15625 z M 31.65625 49.4375 C 30.345866 49.4375 29.28125 50.5021 29.28125 51.8125 L 29.28125 58.28125 C 29.28125 59.59165 30.345866 60.65625 31.65625 60.65625 L 38.125 60.65625 C 39.435384 60.65625 40.5 59.59165 40.5 58.28125 L 40.5 51.8125 C 40.5 50.5021 39.435384 49.4375 38.125 49.4375 L 31.65625 49.4375 z M 52.0625 49.6875 C 50.752116 49.6875 49.6875 50.7521 49.6875 52.0625 L 49.6875 57.09375 C 49.6875 58.40415 50.752116 59.46875 52.0625 59.46875 L 57.09375 59.46875 C 58.404134 59.46875 59.46875 58.40415 59.46875 57.09375 L 59.46875 52.0625 C 59.46875 50.7521 58.404134 49.6875 57.09375 49.6875 L 52.0625 49.6875 z M 71 49.90625 C 69.689616 49.90625 68.625 50.97085 68.625 52.28125 L 68.625 56.0625 C 68.625 57.3729 69.689616 58.4375 71 58.4375 L 74.8125 58.4375 C 76.122884 58.4375 77.1875 57.3729 77.1875 56.0625 L 77.1875 52.28125 C 77.1875 50.97085 76.122884 49.90625 74.8125 49.90625 L 71 49.90625 z M 88.71875 50.09375 C 87.408366 50.09375 86.34375 51.15835 86.34375 52.46875 L 86.34375 55.1875 C 86.34375 56.4979 87.408366 57.5625 88.71875 57.5625 L 91.46875 57.5625 C 92.779134 57.5625 93.84375 56.4979 93.84375 55.1875 L 93.84375 52.46875 C 93.84375 51.15835 92.779134 50.09375 91.46875 50.09375 L 88.71875 50.09375 z M 10.40625 68.03125 C 9.0958661 68.03125 8.0625 69.11465 8.0625 70.40625 L 8.0625 76.875 C 8.0625 78.1666 9.0958661 79.25 10.40625 79.25 L 16.875 79.25 C 18.185384 79.25 19.25 78.1854 19.25 76.875 L 19.25 70.40625 C 19.25 69.09585 18.185384 68.03125 16.875 68.03125 L 10.40625 68.03125 z M 32.0625 68.375 C 30.752116 68.375 29.6875 69.4396 29.6875 70.75 L 29.6875 75.75 C 29.6875 77.0604 30.752116 78.125 32.0625 78.125 L 37.09375 78.125 C 38.404134 78.125 39.46875 77.0604 39.46875 75.75 L 39.46875 70.75 C 39.46875 69.4396 38.404134 68.375 37.09375 68.375 L 32.0625 68.375 z M 52.28125 68.625 C 50.970866 68.625 49.90625 69.6896 49.90625 71 L 49.90625 74.8125 C 49.90625 76.1229 50.970866 77.1875 52.28125 77.1875 L 56.0625 77.1875 C 57.372884 77.1875 58.4375 76.1229 58.4375 74.8125 L 58.4375 71 C 58.4375 69.6896 57.372884 68.625 56.0625 68.625 L 52.28125 68.625 z M 71.25 68.875 C 69.939616 68.875 68.875 69.9396 68.875 71.25 L 68.875 74 C 68.875 75.3104 69.939616 76.375 71.25 76.375 L 74 76.375 C 75.310384 76.375 76.375 75.3104 76.375 74 L 76.375 71.25 C 76.375 69.9396 75.310384 68.875 74 68.875 L 71.25 68.875 z M 89.1875 69.0625 C 87.877116 69.0625 86.8125 70.1271 86.8125 71.4375 L 86.8125 73.3125 C 86.8125 74.6229 87.877116 75.6875 89.1875 75.6875 L 91.03125 75.6875 C 92.341634 75.6875 93.40625 74.6229 93.40625 73.3125 L 93.40625 71.4375 C 93.40625 70.1271 92.341634 69.0625 91.03125 69.0625 L 89.1875 69.0625 z M 11.15625 85.21875 C 9.8458662 85.21875 8.78125 86.28335 8.78125 87.59375 L 8.78125 92.625 C 8.78125 93.9354 9.8458662 95 11.15625 95 L 16.15625 95 C 17.466634 95 18.53125 93.9354 18.53125 92.625 L 18.53125 87.59375 C 18.53125 86.28335 17.466634 85.21875 16.15625 85.21875 L 11.15625 85.21875 z M 32.40625 85.84375 C 31.095866 85.84375 30.03125 86.90835 30.03125 88.21875 L 30.03125 92 C 30.03125 93.3104 31.095866 94.375 32.40625 94.375 L 36.1875 94.375 C 37.497884 94.375 38.5625 93.3104 38.5625 92 L 38.5625 88.21875 C 38.5625 86.90835 37.497884 85.84375 36.1875 85.84375 L 32.40625 85.84375 z M 52.46875 86.34375 C 51.158366 86.34375 50.09375 87.40835 50.09375 88.71875 L 50.09375 91.46875 C 50.09375 92.77915 51.158366 93.84375 52.46875 93.84375 L 55.1875 93.84375 C 56.497884 93.84375 57.5625 92.77915 57.5625 91.46875 L 57.5625 88.71875 C 57.5625 87.40835 56.497884 86.34375 55.1875 86.34375 L 52.46875 86.34375 z M 71.4375 86.8125 C 70.127116 86.8125 69.0625 87.8771 69.0625 89.1875 L 69.0625 91.03125 C 69.0625 92.34165 70.127116 93.40625 71.4375 93.40625 L 73.3125 93.40625 C 74.622884 93.40625 75.6875 92.34165 75.6875 91.03125 L 75.6875 89.1875 C 75.6875 87.8771 74.622884 86.8125 73.3125 86.8125 L 71.4375 86.8125 z M 89.5625 87.1875 C 88.252116 87.1875 87.1875 88.2521 87.1875 89.5625 L 87.1875 90.65625 C 87.1875 91.96665 88.252116 93.03125 89.5625 93.03125 L 90.65625 93.03125 C 91.966634 93.03125 93.03125 91.96665 93.03125 90.65625 L 93.03125 89.5625 C 93.03125 88.2521 91.966634 87.1875 90.65625 87.1875 L 89.5625 87.1875 z " transform="translate(0,952.36218)" id="path3182"/>
  </g>
</svg>